<svg width="23" height="22" viewBox="0 0 23 22" fill="none" xmlns="http://www.w3.org/2000/svg">
<path d="M20.0999 0.0625H2.91235C1.61841 0.0625 0.568604 1.1123 0.568604 2.40625V19.5938C0.568604 20.8877 1.61841 21.9375 2.91235 21.9375H20.0999C21.3938 21.9375 22.4436 20.8877 22.4436 19.5938V2.40625C22.4436 1.1123 21.3938 0.0625 20.0999 0.0625ZM7.62427 14.0762C5.9104 14.0762 4.52368 12.6895 4.52368 10.9756C4.52368 9.26172 5.9104 7.875 7.62427 7.875C9.33813 7.875 10.7249 9.26172 10.7249 10.9756C10.7249 12.6895 9.33813 14.0762 7.62427 14.0762ZM15.3879 14.0762C13.6741 14.0762 12.2874 12.6895 12.2874 10.9756C12.2874 9.26172 13.6741 7.875 15.3879 7.875C17.1018 7.875 18.4885 9.26172 18.4885 10.9756C18.4885 12.6895 17.1018 14.0762 15.3879 14.0762Z" fill="white"/>
</svg>
