<svg width="23" height="22" viewBox="0 0 23 22" fill="none" xmlns="http://www.w3.org/2000/svg">
<path d="M11.5024 5.39331C8.39697 5.39331 5.89209 7.89819 5.89209 11.0037C5.89209 14.1091 8.39697 16.614 11.5024 16.614C14.6079 16.614 17.1128 14.1091 17.1128 11.0037C17.1128 7.89819 14.6079 5.39331 11.5024 5.39331ZM11.5024 14.6511C9.49561 14.6511 7.85498 13.0154 7.85498 11.0037C7.85498 8.99194 9.49072 7.3562 11.5024 7.3562C13.5142 7.3562 15.1499 8.99194 15.1499 11.0037C15.1499 13.0154 13.5093 14.6511 11.5024 14.6511ZM18.6509 5.16382C18.6509 5.89136 18.0649 6.47241 17.3423 6.47241C16.6147 6.47241 16.0337 5.88647 16.0337 5.16382C16.0337 4.44116 16.6196 3.85522 17.3423 3.85522C18.0649 3.85522 18.6509 4.44116 18.6509 5.16382ZM22.3667 6.49194C22.2837 4.73901 21.8833 3.18628 20.5991 1.90698C19.3198 0.627685 17.7671 0.227295 16.0142 0.139404C14.2075 0.0368652 8.79248 0.0368652 6.98584 0.139404C5.23779 0.222412 3.68506 0.622803 2.40088 1.9021C1.1167 3.1814 0.721191 4.73413 0.633301 6.48706C0.530762 8.2937 0.530762 13.7087 0.633301 15.5154C0.716309 17.2683 1.1167 18.821 2.40088 20.1003C3.68506 21.3796 5.23291 21.78 6.98584 21.8679C8.79248 21.9705 14.2075 21.9705 16.0142 21.8679C17.7671 21.7849 19.3198 21.3845 20.5991 20.1003C21.8784 18.821 22.2788 17.2683 22.3667 15.5154C22.4692 13.7087 22.4692 8.29858 22.3667 6.49194ZM20.0327 17.4539C19.6519 18.4109 18.9146 19.1482 17.9526 19.5339C16.5122 20.1052 13.0942 19.9734 11.5024 19.9734C9.91064 19.9734 6.48779 20.1003 5.05225 19.5339C4.09521 19.1531 3.35791 18.4158 2.97217 17.4539C2.40088 16.0134 2.53271 12.5955 2.53271 11.0037C2.53271 9.41187 2.40576 5.98901 2.97217 4.55347C3.35303 3.59644 4.09033 2.85913 5.05225 2.47339C6.49268 1.9021 9.91064 2.03394 11.5024 2.03394C13.0942 2.03394 16.5171 1.90698 17.9526 2.47339C18.9097 2.85425 19.647 3.59155 20.0327 4.55347C20.604 5.9939 20.4722 9.41187 20.4722 11.0037C20.4722 12.5955 20.604 16.0183 20.0327 17.4539Z" fill="white"/>
</svg>
