<svg width="23" height="22" viewBox="0 0 23 22" fill="none" xmlns="http://www.w3.org/2000/svg">
<path d="M20.875 0.0625H2.12012C1.26074 0.0625 0.5625 0.770508 0.5625 1.63965V20.3604C0.5625 21.2295 1.26074 21.9375 2.12012 21.9375H20.875C21.7344 21.9375 22.4375 21.2295 22.4375 20.3604V1.63965C22.4375 0.770508 21.7344 0.0625 20.875 0.0625ZM7.17383 18.8125H3.93164V8.37305H7.17871V18.8125H7.17383ZM5.55273 6.94727C4.5127 6.94727 3.67285 6.10254 3.67285 5.06738C3.67285 4.03223 4.5127 3.1875 5.55273 3.1875C6.58789 3.1875 7.43262 4.03223 7.43262 5.06738C7.43262 6.10742 6.59277 6.94727 5.55273 6.94727ZM19.3271 18.8125H16.085V13.7344C16.085 12.5234 16.0605 10.9658 14.4004 10.9658C12.7109 10.9658 12.4521 12.2842 12.4521 13.6465V18.8125H9.20996V8.37305H12.3203V9.79883H12.3643C12.7988 8.97852 13.8584 8.11426 15.4355 8.11426C18.7168 8.11426 19.3271 10.2773 19.3271 13.0898V18.8125Z" fill="white"/>
</svg>
