<svg width="456" height="448" viewBox="0 0 456 448" fill="none" xmlns="http://www.w3.org/2000/svg">
<path d="M275.017 28.8974C307.44 41.4567 337.653 57.0562 364.169 79.5496C392.116 103.257 418.073 129.408 432.971 162.891C449.181 199.323 462.27 240.052 452.819 278.791C443.345 317.62 410.429 344.976 381.753 372.817C353.724 400.031 324.896 427.579 287.598 439.203C249.821 450.977 208.724 450.193 170.914 438.526C134.038 427.146 101.988 403.649 77.0185 374.222C53.3194 346.293 45.1037 310.179 32.7475 275.696C19.5043 238.739 -7.03292 202.42 1.74381 164.155C10.532 125.84 50.4408 104.844 78.2969 77.1077C105.729 49.7934 126.821 11.3922 164.421 2.17779C201.895 -7.0061 239.038 14.9612 275.017 28.8974Z" fill="white"/>
<g clip-path="url(#clip0_2_316)">
<path d="M101.943 323.857C97.9375 322.488 96.2279 330.01 100.224 331.422C104.23 332.79 105.939 325.268 101.943 323.857Z" fill="#3F3D56"/>
<path d="M124.155 333.537C120.149 332.169 118.439 339.691 122.435 341.102C126.441 342.471 128.15 334.949 124.155 333.537Z" fill="#3F3D56"/>
<path d="M133.144 254.21L133.082 254.188L122.763 288.824L121.403 288.352L131.796 253.467C131.818 252.929 131.989 252.417 132.279 252.016C132.569 251.615 132.962 251.348 133.391 251.261C138.552 250.252 140.643 255.915 140.643 255.915L140.623 255.953L130.073 291.365L128.713 290.892L138.952 256.522C135.835 252.71 133.144 254.21 133.144 254.21Z" fill="#3F3D56"/>
<path d="M121.217 335.485C115.135 335.37 107.613 331.307 102.485 328.26C101.127 327.455 100.042 326.083 99.422 324.385C98.8022 322.688 98.6872 320.774 99.0974 318.982L105.744 289.746C106.04 288.45 106.547 287.243 107.233 286.197C107.918 285.151 108.769 284.288 109.733 283.661C110.668 283.046 111.696 282.677 112.752 282.576C113.808 282.475 114.869 282.645 115.87 283.075C116.107 283.207 122.564 285.442 126.836 286.92C129.35 287.79 131.166 288.418 131.288 288.469C131.388 288.51 135.905 290.429 135.104 297.176C134.488 302.358 129.841 321.454 127.872 329.423C127.444 331.165 126.578 332.692 125.399 333.783C124.22 334.873 122.79 335.47 121.318 335.486C121.284 335.486 121.25 335.485 121.217 335.485Z" fill="#186645"/>
<path d="M102.338 323.438L110.954 287.379L131.216 294.458L131.338 293.929L110.652 286.701L110.59 286.962L101.911 323.282L102.338 323.438Z" fill="#3F3D56"/>
<path d="M376 111.848H198.513V215.979H376V111.848Z" fill="#E5E5E5"/>
<path d="M371.136 120.777H203.799V207.657H371.136V120.777Z" fill="white"/>
<path d="M375.924 105.832H198.437V115.154H375.924V105.832Z" fill="#186645"/>
<path d="M204.041 112.204C204.813 112.204 205.438 111.43 205.438 110.476C205.438 109.522 204.813 108.748 204.041 108.748C203.269 108.748 202.643 109.522 202.643 110.476C202.643 111.43 203.269 112.204 204.041 112.204Z" fill="white"/>
<path d="M209.345 112.204C210.117 112.204 210.743 111.43 210.743 110.476C210.743 109.522 210.117 108.748 209.345 108.748C208.573 108.748 207.948 109.522 207.948 110.476C207.948 111.43 208.573 112.204 209.345 112.204Z" fill="white"/>
<path d="M214.65 112.204C215.422 112.204 216.048 111.43 216.048 110.476C216.048 109.522 215.422 108.748 214.65 108.748C213.878 108.748 213.253 109.522 213.253 110.476C213.253 111.43 213.878 112.204 214.65 112.204Z" fill="white"/>
<path d="M282.789 163.011C282.793 166.942 282.226 170.842 281.115 174.525C280.611 176.212 279.992 177.843 279.265 179.401C276.929 184.44 273.559 188.628 269.494 191.54C265.43 194.452 260.816 195.986 256.118 195.986C251.42 195.986 246.806 194.452 242.742 191.54C238.677 188.628 235.307 184.44 232.971 179.401C232.734 178.894 232.51 178.38 232.298 177.858C230.485 173.411 229.51 168.515 229.446 163.536C229.382 158.557 230.231 153.625 231.929 149.11C233.627 144.594 236.13 140.613 239.25 137.464C242.37 134.315 246.026 132.081 249.945 130.929C253.863 129.777 257.941 129.737 261.874 130.812C265.806 131.887 269.491 134.049 272.651 137.136C275.811 140.222 278.365 144.154 280.121 148.636C281.876 153.117 282.789 158.032 282.789 163.011Z" fill="#F1F1F1"/>
<path d="M257.505 168.579C260.321 168.579 262.604 165.756 262.604 162.274C262.604 158.792 260.321 155.97 257.505 155.97C254.689 155.97 252.406 158.792 252.406 162.274C252.406 165.756 254.689 168.579 257.505 168.579Z" fill="#186645"/>
<path d="M232.298 177.858C234.545 174.856 237.548 170.09 240.365 173.534C241.778 175.158 243.991 179.183 246.109 176.552L262.646 156.105C262.957 155.725 263.327 155.426 263.733 155.225C264.14 155.024 264.574 154.925 265.012 154.935C265.449 154.945 265.88 155.062 266.281 155.281C266.681 155.5 267.041 155.815 267.342 156.209L281.115 174.525C280.611 176.212 279.992 177.843 279.265 179.401H232.971L232.298 177.858Z" fill="white"/>
<path d="M337.252 156.551C337.069 156.551 336.894 156.641 336.765 156.801C336.636 156.96 336.563 157.177 336.563 157.403C336.563 157.629 336.636 157.846 336.765 158.005C336.894 158.165 337.069 158.255 337.252 158.255H344.482C344.665 158.255 344.84 158.165 344.969 158.005C345.099 157.846 345.171 157.629 345.171 157.403C345.171 157.177 345.099 156.96 344.969 156.801C344.84 156.641 344.665 156.551 344.482 156.551H337.252Z" fill="#186645"/>
<path d="M304.677 144.038C304.587 144.038 304.497 144.06 304.413 144.103C304.329 144.145 304.253 144.208 304.189 144.287C304.125 144.366 304.074 144.46 304.039 144.564C304.005 144.667 303.987 144.778 303.987 144.89C303.987 145.002 304.005 145.113 304.039 145.217C304.074 145.32 304.125 145.414 304.189 145.493C304.253 145.572 304.329 145.635 304.413 145.678C304.497 145.72 304.587 145.742 304.677 145.742H344.799C344.981 145.742 345.156 145.652 345.285 145.492C345.414 145.332 345.486 145.116 345.486 144.89C345.486 144.665 345.414 144.448 345.285 144.288C345.156 144.129 344.981 144.039 344.799 144.038H304.677Z" fill="#E5E5E5"/>
<path d="M304.677 150.295C304.587 150.294 304.497 150.316 304.413 150.359C304.329 150.402 304.253 150.464 304.189 150.544C304.125 150.623 304.074 150.717 304.039 150.82C304.005 150.924 303.987 151.035 303.987 151.147C303.987 151.259 304.005 151.37 304.039 151.473C304.074 151.576 304.125 151.671 304.189 151.75C304.253 151.829 304.329 151.891 304.413 151.934C304.497 151.977 304.587 151.999 304.677 151.998H344.799C344.981 151.998 345.156 151.908 345.285 151.748C345.414 151.589 345.486 151.372 345.486 151.147C345.486 150.921 345.414 150.705 345.285 150.545C345.156 150.385 344.981 150.295 344.799 150.295H304.677Z" fill="#E5E5E5"/>
<path d="M337.252 196.696C337.069 196.697 336.895 196.787 336.766 196.946C336.637 197.106 336.564 197.322 336.564 197.548C336.564 197.774 336.637 197.99 336.766 198.15C336.895 198.309 337.069 198.399 337.252 198.4H344.482C344.573 198.4 344.663 198.378 344.746 198.336C344.83 198.293 344.906 198.23 344.97 198.151C345.035 198.072 345.085 197.978 345.12 197.874C345.155 197.771 345.173 197.66 345.173 197.548C345.173 197.436 345.155 197.325 345.12 197.222C345.085 197.118 345.035 197.024 344.97 196.945C344.906 196.866 344.83 196.803 344.746 196.76C344.663 196.718 344.573 196.696 344.482 196.696H337.252Z" fill="#186645"/>
<path d="M304.677 184.183C304.494 184.183 304.319 184.273 304.19 184.433C304.061 184.593 303.988 184.809 303.988 185.035C303.988 185.261 304.061 185.478 304.19 185.638C304.319 185.797 304.494 185.887 304.677 185.887H344.799C344.981 185.887 345.157 185.797 345.286 185.638C345.415 185.478 345.488 185.261 345.488 185.035C345.488 184.809 345.415 184.593 345.286 184.433C345.157 184.273 344.981 184.183 344.799 184.183H304.677Z" fill="#E5E5E5"/>
<path d="M304.677 190.44C304.587 190.439 304.497 190.461 304.413 190.504C304.329 190.547 304.253 190.609 304.189 190.689C304.125 190.768 304.074 190.862 304.039 190.965C304.005 191.069 303.987 191.18 303.987 191.292C303.987 191.404 304.005 191.515 304.039 191.618C304.074 191.722 304.125 191.816 304.189 191.895C304.253 191.974 304.329 192.036 304.413 192.079C304.497 192.122 304.587 192.144 304.677 192.144H344.799C344.981 192.144 345.157 192.054 345.286 191.894C345.415 191.734 345.488 191.518 345.488 191.292C345.488 191.066 345.415 190.849 345.286 190.689C345.157 190.529 344.981 190.44 344.799 190.44H304.677Z" fill="#E5E5E5"/>
<path d="M328.761 134.493H326.589L324.724 131.189H323.935L324.871 134.493H322.745L321.873 133.414H321.135L321.503 135.41L321.135 137.155H321.873L322.745 136.076L322.759 136.047H324.896L323.935 139.439H324.724L326.596 136.121L326.618 136.047H328.761C328.928 136.047 329.088 135.966 329.206 135.82C329.324 135.674 329.39 135.476 329.39 135.27C329.39 135.064 329.324 134.866 329.206 134.721C329.088 134.575 328.928 134.493 328.761 134.493Z" fill="#E5E5E5"/>
<path d="M326.92 177.608H323.486C323.179 177.608 322.884 177.457 322.667 177.188C322.45 176.919 322.327 176.555 322.327 176.175V172.313C322.326 172.057 322.393 171.806 322.519 171.602C322.644 171.397 322.821 171.25 323.021 171.182C324.448 170.715 325.95 170.716 327.376 171.186C327.579 171.252 327.757 171.399 327.885 171.605C328.012 171.81 328.08 172.062 328.079 172.321V176.175C328.079 176.555 327.957 176.919 327.739 177.188C327.522 177.457 327.227 177.608 326.92 177.608Z" fill="#E5E5E5"/>
<path d="M327.42 172.454H322.986V174.509H327.42V172.454Z" fill="white"/>
<path d="M323.541 176.565C323.847 176.565 324.095 176.258 324.095 175.879C324.095 175.501 323.847 175.194 323.541 175.194C323.235 175.194 322.986 175.501 322.986 175.879C322.986 176.258 323.235 176.565 323.541 176.565Z" fill="white"/>
<path d="M326.865 176.565C327.172 176.565 327.42 176.258 327.42 175.879C327.42 175.501 327.172 175.194 326.865 175.194C326.559 175.194 326.311 175.501 326.311 175.879C326.311 176.258 326.559 176.565 326.865 176.565Z" fill="white"/>
<path d="M327.848 179.564H322.498L323.763 178.26H326.583L327.848 179.564ZM323.33 179.191H327.016L326.474 178.633H323.872L323.33 179.191Z" fill="#E5E5E5"/>
<path d="M328.125 177.869H322.221C322.138 177.869 322.057 177.828 321.998 177.755C321.939 177.681 321.905 177.582 321.905 177.478C321.905 177.374 321.939 177.275 321.998 177.202C322.057 177.128 322.138 177.087 322.221 177.087H328.125C328.209 177.087 328.289 177.128 328.349 177.202C328.408 177.275 328.441 177.374 328.441 177.478C328.441 177.582 328.408 177.681 328.349 177.755C328.289 177.828 328.209 177.869 328.125 177.869Z" fill="#E5E5E5"/>
<path d="M138.198 257.136C138.385 256.668 138.485 256.154 138.494 255.632C138.502 255.11 138.417 254.592 138.246 254.114C138.075 253.637 137.821 253.212 137.503 252.869C137.184 252.526 136.809 252.273 136.403 252.129L135.848 239.454L131.559 243.378L132.744 254.813C132.593 255.672 132.703 256.57 133.051 257.336C133.4 258.102 133.964 258.684 134.636 258.97C135.309 259.256 136.043 259.228 136.699 258.89C137.356 258.552 137.889 257.928 138.198 257.136Z" fill="#FFB7B7"/>
<path d="M171.422 259.495C171.179 259.067 171.016 258.579 170.942 258.065C170.869 257.551 170.888 257.023 170.997 256.518C171.107 256.014 171.305 255.546 171.577 255.146C171.848 254.746 172.188 254.425 172.571 254.205L171.539 241.576L176.266 244.635L176.521 256.16C176.777 256.98 176.781 257.888 176.532 258.711C176.283 259.535 175.798 260.217 175.169 260.628C174.541 261.039 173.812 261.151 173.121 260.942C172.431 260.733 171.826 260.218 171.422 259.495Z" fill="#FFB7B7"/>
<path d="M146.198 337.14L149.574 337.139L151.181 321.035H146.197L146.198 337.14Z" fill="#FFB7B7"/>
<path d="M145.336 335.776L151.987 335.776C153.111 335.776 154.189 336.328 154.984 337.311C155.778 338.294 156.225 339.626 156.225 341.016V341.186L145.336 341.187L145.336 335.776Z" fill="#2F2E41"/>
<path d="M163.253 334.632L166.555 335.507L170.855 320.176L165.982 318.885L163.253 334.632Z" fill="#FFB7B7"/>
<path d="M162.642 333.076L169.145 334.799C170.244 335.09 171.204 335.909 171.815 337.076C172.426 338.243 172.636 339.661 172.401 341.02L172.372 341.187L161.725 338.366L162.642 333.076Z" fill="#2F2E41"/>
<path d="M140.109 244.978C140.109 244.978 136.516 258.706 140.035 274.231L143.616 292.827L144.505 333.976L151.757 331.098L154.711 268.334L168.32 296.893L161.157 331.098L169.394 331.43L178.288 294.439L170.468 259.922L169.036 251.509L140.109 244.978Z" fill="#2F2E41"/>
<path d="M169.47 199.385L162.257 194.302L149.778 193.41L141.122 199.029L144.64 228.867C144.64 228.867 137.931 240.772 140.377 248.704C143.396 258.493 169.795 263.601 169.279 254.047C168.464 238.969 167.205 240.009 166.283 232.615C165.27 224.503 172.355 214.101 172.355 214.101L169.47 199.385Z" fill="#CBCBCB"/>
<path d="M143.791 201.972L142.987 197.663C142.987 197.663 139.557 198.212 137.18 206.422C134.802 214.631 130.577 231.937 130.577 231.937L130.797 238.224C130.797 238.224 129.169 240.551 130.292 241.613C131.416 242.676 128.263 244.116 129.86 245.626C130.561 246.291 131.092 247.191 131.389 248.219C131.685 249.248 131.736 250.36 131.533 251.423L136.438 249.55L136.077 239.651L138.021 231.848L143.214 212.317L143.791 201.972Z" fill="#CBCBCB"/>
<path d="M166.829 202.706L167.921 198.528C167.921 198.528 169.933 197.51 171.419 203.247C172.904 208.984 173.609 223.502 173.609 223.502L176.494 240.807C176.494 240.807 177.572 243.011 176.999 243.643C176.426 244.275 179.517 245.163 177.72 246.333C175.924 247.504 177.875 246.081 177.204 248.75C176.763 250.502 177.215 251.423 177.215 251.423L171.661 250.042L170.147 241.171L166.711 224.678L166.829 202.706Z" fill="#CBCBCB"/>
<path d="M156.044 189.658C161.335 189.658 165.624 184.356 165.624 177.814C165.624 171.273 161.335 165.971 156.044 165.971C150.754 165.971 146.465 171.273 146.465 177.814C146.465 184.356 150.754 189.658 156.044 189.658Z" fill="#2F2E41"/>
<path d="M155.06 170.444C152.999 167.859 150.505 165.865 147.753 164.601C145.986 163.792 144.064 163.292 142.217 163.752C140.37 164.211 138.624 165.791 138.108 168.031C137.687 169.863 138.122 171.836 138.776 173.56C139.43 175.285 140.303 176.884 140.831 178.672C141.371 180.498 141.533 182.461 141.303 184.383C141.074 186.306 140.459 188.127 139.516 189.681C138.573 191.235 137.33 192.474 135.901 193.284C134.473 194.094 132.903 194.45 131.335 194.32C133.149 194.621 134.822 195.675 136.596 196.236C138.369 196.798 140.463 196.759 141.781 195.188C143.175 193.526 143.203 190.824 143.136 188.43C143.036 184.872 142.935 181.314 142.835 177.756C142.784 175.942 142.74 174.069 143.27 172.375C143.799 170.682 145.057 169.199 146.525 169.214C147.638 169.226 148.623 170.059 149.516 170.881C150.408 171.703 151.353 172.581 152.461 172.703C153.57 172.825 154.836 171.811 154.753 170.439L155.06 170.444Z" fill="#2F2E41"/>
<path d="M163.195 186.349C165.063 182.124 163.807 176.827 160.39 174.518C156.973 172.208 152.689 173.761 150.821 177.986C148.953 182.211 150.209 187.508 153.626 189.818C157.043 192.127 161.327 190.574 163.195 186.349Z" fill="#FFB7B7"/>
<path d="M166.925 181.508H156.743L156.638 179.701L156.116 181.508H154.548L154.342 177.926L153.307 181.508H150.273V181.331C150.275 178.837 151.078 176.446 152.504 174.683C153.93 172.919 155.864 171.927 157.881 171.924H159.317C161.334 171.927 163.268 172.919 164.694 174.683C166.12 176.446 166.922 178.837 166.925 181.331V181.508Z" fill="#2F2E41"/>
<path d="M151.811 188.005L148.093 183.403L147.466 173.216H155.674L155.47 173.466C152.643 176.957 149.591 182.08 151.811 188.005Z" fill="#2F2E41"/>
<path d="M200.776 341.832H80.3162C80.2323 341.832 80.1519 341.791 80.0926 341.717C80.0333 341.644 80 341.545 80 341.441C80 341.337 80.0333 341.238 80.0926 341.164C80.1519 341.091 80.2323 341.05 80.3162 341.05H200.776C200.86 341.05 200.941 341.091 201 341.164C201.059 341.238 201.092 341.337 201.092 341.441C201.092 341.545 201.059 341.644 201 341.717C200.941 341.791 200.86 341.832 200.776 341.832Z" fill="#CBCBCB"/>
</g>
<defs>
<clipPath id="clip0_2_316">
<rect width="296" height="236" fill="white" transform="translate(80 105.832)"/>
</clipPath>
</defs>
</svg>
