<svg width="26" height="22" viewBox="0 0 26 22" fill="none" xmlns="http://www.w3.org/2000/svg">
<path d="M23.3538 5.91945C23.3697 6.14152 23.3697 6.36363 23.3697 6.58571C23.3697 13.3591 18.2143 21.1637 8.79168 21.1637C5.88875 21.1637 3.19207 20.323 0.92366 18.8636C1.33611 18.9112 1.73264 18.9271 2.16096 18.9271C4.55623 18.9271 6.76121 18.1181 8.522 16.738C6.26946 16.6904 4.38177 15.2151 3.73138 13.1847C4.04866 13.2322 4.3659 13.264 4.69905 13.264C5.15906 13.264 5.61912 13.2005 6.04739 13.0895C3.69969 12.6136 1.93885 10.5514 1.93885 8.06095V7.99752C2.62093 8.37823 3.41414 8.61617 4.25481 8.64786C2.87473 7.7278 1.97058 6.15739 1.97058 4.38073C1.97058 3.42897 2.22434 2.55651 2.66853 1.79508C5.19075 4.90421 8.98201 6.93463 13.2332 7.15675C13.1539 6.77604 13.1063 6.3795 13.1063 5.98292C13.1063 3.15929 15.3906 0.859192 18.2301 0.859192C19.7053 0.859192 21.0378 1.47784 21.9737 2.47721C23.1317 2.25514 24.2421 1.82682 25.2256 1.2399C24.8449 2.42965 24.0359 3.42902 22.9731 4.06349C24.0042 3.9525 25.0035 3.66691 25.9236 3.27037C25.2257 4.28556 24.3532 5.18971 23.3538 5.91945Z" fill="white"/>
</svg>
