<svg width="25" height="17" viewBox="0 0 25 17" fill="none" xmlns="http://www.w3.org/2000/svg">
<path d="M23.8566 2.9411C23.5839 1.91462 22.7807 1.1062 21.7609 0.831853C19.9124 0.333328 12.5 0.333328 12.5 0.333328C12.5 0.333328 5.08767 0.333328 3.2391 0.831853C2.21927 1.10624 1.41606 1.91462 1.14344 2.9411C0.648132 4.80164 0.648132 8.6835 0.648132 8.6835C0.648132 8.6835 0.648132 12.5654 1.14344 14.4259C1.41606 15.4524 2.21927 16.2271 3.2391 16.5015C5.08767 17 12.5 17 12.5 17C12.5 17 19.9123 17 21.7609 16.5015C22.7807 16.2271 23.5839 15.4524 23.8566 14.4259C24.3519 12.5654 24.3519 8.6835 24.3519 8.6835C24.3519 8.6835 24.3519 4.80164 23.8566 2.9411ZM10.0757 12.2079V5.15907L16.271 8.68359L10.0757 12.2079Z" fill="white"/>
</svg>
